solid Exported from Blender-2.90.0
facet normal -0.025825 -0.999666 0.000000
outer loop
vertex 1128.765869 313.816162 1308.267700
vertex 811.676941 322.007690 1292.519653
vertex 1128.765869 313.816162 1292.519653
endloop
endfacet
facet normal -0.025825 -0.999666 0.000000
outer loop
vertex 811.676941 322.007690 1292.519653
vertex 1128.765869 313.816162 1308.267700
vertex 811.676941 322.007690 1308.267700
endloop
endfacet
facet normal 0.025825 0.999667 0.000000
outer loop
vertex 585.065674 -385.368134 1308.267700
vertex 793.263977 -390.746643 1292.519653
vertex 585.065674 -385.368134 1292.519653
endloop
endfacet
facet normal 0.025825 0.999666 0.000000
outer loop
vertex 793.263977 -390.746643 1292.519653
vertex 585.065674 -385.368134 1308.267700
vertex 793.263977 -390.746643 1308.267700
endloop
endfacet
facet normal 0.999667 -0.025825 0.000000
outer loop
vertex 605.522339 406.493652 1292.519653
vertex 585.065674 -385.368134 1308.267700
vertex 585.065674 -385.368134 1292.519653
endloop
endfacet
facet normal 0.999667 -0.025825 0.000000
outer loop
vertex 585.065674 -385.368134 1308.267700
vertex 605.522339 406.493652 1292.519653
vertex 605.522339 406.493652 1308.267700
endloop
endfacet
facet normal -0.025825 -0.999667 0.000000
outer loop
vertex 813.720581 401.115173 1308.267700
vertex 605.522339 406.493652 1292.519653
vertex 813.720581 401.115173 1292.519653
endloop
endfacet
facet normal -0.025825 -0.999667 0.000000
outer loop
vertex 605.522339 406.493652 1292.519653
vertex 813.720581 401.115173 1308.267700
vertex 605.522339 406.493652 1308.267700
endloop
endfacet
facet normal -0.999667 0.025825 0.000000
outer loop
vertex 813.720581 401.115173 1308.267700
vertex 811.676941 322.007690 1292.519653
vertex 811.676941 322.007690 1308.267700
endloop
endfacet
facet normal -0.999666 0.025825 0.000000
outer loop
vertex 811.676941 322.007690 1292.519653
vertex 813.720581 401.115173 1308.267700
vertex 813.720581 401.115173 1292.519653
endloop
endfacet
facet normal 0.999666 -0.025825 0.000000
outer loop
vertex 1097.952393 -319.851379 1292.519653
vertex 1095.918945 -398.565277 1308.267700
vertex 1095.918945 -398.565277 1292.519653
endloop
endfacet
facet normal 0.999666 -0.025825 0.000000
outer loop
vertex 1095.918945 -398.565277 1308.267700
vertex 1097.952393 -319.851379 1292.519653
vertex 1097.952393 -319.851379 1308.267700
endloop
endfacet
facet normal 0.999667 -0.025822 0.000000
outer loop
vertex 1130.809448 392.923676 1292.519653
vertex 1128.765869 313.816162 1308.267700
vertex 1128.765869 313.816162 1292.519653
endloop
endfacet
facet normal 0.999666 -0.025829 0.000000
outer loop
vertex 1128.765869 313.816162 1308.267700
vertex 1130.809448 392.923676 1292.519653
vertex 1130.809448 392.923676 1308.267700
endloop
endfacet
facet normal -0.025825 -0.999667 0.000000
outer loop
vertex 1335.465576 387.636627 1308.267700
vertex 1130.809448 392.923676 1292.519653
vertex 1335.465576 387.636627 1292.519653
endloop
endfacet
facet normal -0.025825 -0.999667 0.000000
outer loop
vertex 1130.809448 392.923676 1292.519653
vertex 1335.465576 387.636627 1308.267700
vertex 1130.809448 392.923676 1308.267700
endloop
endfacet
facet normal -0.002906 0.999996 0.000000
outer loop
vertex 1095.918945 -398.565277 1308.267700
vertex 1315.171631 -397.928040 1292.519653
vertex 1095.918945 -398.565277 1292.519653
endloop
endfacet
facet normal -0.002906 0.999996 0.000000
outer loop
vertex 1315.171631 -397.928040 1292.519653
vertex 1095.918945 -398.565277 1308.267700
vertex 1315.171631 -397.928040 1308.267700
endloop
endfacet
facet normal -0.999666 0.025825 0.000000
outer loop
vertex 1335.465576 387.636627 1308.267700
vertex 1315.171631 -397.928040 1292.519653
vertex 1315.171631 -397.928040 1308.267700
endloop
endfacet
facet normal -0.999666 0.025825 0.000000
outer loop
vertex 1315.171631 -397.928040 1292.519653
vertex 1335.465576 387.636627 1308.267700
vertex 1335.465576 387.636627 1292.519653
endloop
endfacet
facet normal 0.025825 0.999666 0.000000
outer loop
vertex 795.297485 -312.032745 1308.267700
vertex 1097.952393 -319.851379 1292.519653
vertex 795.297485 -312.032745 1292.519653
endloop
endfacet
facet normal 0.025825 0.999667 0.000000
outer loop
vertex 1097.952393 -319.851379 1292.519653
vertex 795.297485 -312.032745 1308.267700
vertex 1097.952393 -319.851379 1308.267700
endloop
endfacet
facet normal 0.025825 0.999666 0.000000
outer loop
vertex 842.197937 351.924408 1308.267700
vertex 1111.733154 344.961365 1200.322266
vertex 842.197937 351.924408 1198.874512
endloop
endfacet
facet normal 0.025825 0.999666 0.000000
outer loop
vertex 1111.733154 344.961365 1200.322266
vertex 842.197937 351.924408 1308.267700
vertex 1111.733154 344.961365 1308.267700
endloop
endfacet
facet normal -0.025825 -0.999666 0.000000
outer loop
vertex 1077.787476 -420.559052 1199.646362
vertex 810.595825 -413.656555 0.000000
vertex 1077.787476 -420.559052 0.000000
endloop
endfacet
facet normal -0.025825 -0.999666 0.000000
outer loop
vertex 810.595825 -413.656555 0.000000
vertex 1077.787476 -420.559052 1199.646362
vertex 810.595825 -413.656555 1200.524048
endloop
endfacet
facet normal 0.999667 -0.025802 0.000000
outer loop
vertex 1109.479736 -417.833282 0.000000
vertex 1109.286621 -425.311096 1308.267700
vertex 1109.286621 -425.311096 0.000000
endloop
endfacet
facet normal 0.999666 -0.025827 0.000000
outer loop
vertex 1109.286621 -425.311096 1308.267700
vertex 1109.479736 -417.833282 0.000000
vertex 1109.479736 -417.833282 1308.267700
endloop
endfacet
facet normal -0.025825 -0.999667 0.000000
outer loop
vertex 1109.286621 -425.311096 1308.267700
vertex 1077.685913 -424.494751 0.000000
vertex 1109.286621 -425.311096 0.000000
endloop
endfacet
facet normal -0.025824 -0.999667 0.000000
outer loop
vertex 1077.685913 -424.494751 0.000000
vertex 1109.286621 -425.311096 1308.267700
vertex 1077.685913 -424.494751 1308.267700
endloop
endfacet
facet normal -0.025825 -0.999667 0.000000
outer loop
vertex 1336.720947 -423.703705 1308.267700
vertex 1109.479736 -417.833282 0.000000
vertex 1336.720947 -423.703705 0.000000
endloop
endfacet
facet normal -0.025825 -0.999666 0.000000
outer loop
vertex 1109.479736 -417.833282 0.000000
vertex 1336.720947 -423.703705 1308.267700
vertex 1109.479736 -417.833282 1308.267700
endloop
endfacet
facet normal -0.999666 0.025824 0.000000
outer loop
vertex 781.673462 -409.364868 1308.267700
vertex 781.449829 -418.023438 0.000000
vertex 781.449829 -418.023438 1308.267700
endloop
endfacet
facet normal -0.999667 0.025813 0.000000
outer loop
vertex 781.449829 -418.023438 0.000000
vertex 781.673462 -409.364868 1308.267700
vertex 781.673462 -409.364868 0.000000
endloop
endfacet
facet normal -0.025823 -0.999667 0.000000
outer loop
vertex 810.463684 -418.772919 1308.267700
vertex 781.449829 -418.023438 0.000000
vertex 810.463684 -418.772919 0.000000
endloop
endfacet
facet normal -0.025823 -0.999667 0.000000
outer loop
vertex 781.449829 -418.023438 0.000000
vertex 810.463684 -418.772919 1308.267700
vertex 781.449829 -418.023438 1308.267700
endloop
endfacet
facet normal 0.025825 0.999666 0.000000
outer loop
vertex 844.119507 426.309052 1198.874512
vertex 1113.654663 419.345947 0.000000
vertex 844.119507 426.309052 0.000000
endloop
endfacet
facet normal 0.025825 0.999666 0.000000
outer loop
vertex 1113.654663 419.345947 0.000000
vertex 844.119507 426.309052 1198.874512
vertex 1113.654663 419.345947 1200.322266
endloop
endfacet
facet normal -0.999667 0.025826 0.000000
outer loop
vertex 811.414795 429.910706 1308.267700
vertex 811.170776 420.465057 0.000000
vertex 811.170776 420.465057 1308.267700
endloop
endfacet
facet normal -0.999667 0.025826 0.000000
outer loop
vertex 811.170776 420.465057 0.000000
vertex 811.414795 429.910706 1308.267700
vertex 811.414795 429.910706 0.000000
endloop
endfacet
facet normal 0.025825 0.999667 0.000000
outer loop
vertex 811.414795 429.910706 1308.267700
vertex 844.190674 429.063995 0.000000
vertex 811.414795 429.910706 0.000000
endloop
endfacet
facet normal 0.025825 0.999667 0.000000
outer loop
vertex 844.190674 429.063995 0.000000
vertex 811.414795 429.910706 1308.267700
vertex 844.190674 429.063995 1308.267700
endloop
endfacet
facet normal 0.999666 -0.025839 0.000000
outer loop
vertex 1140.185547 418.660614 0.000000
vertex 1140.012695 411.969910 1308.267700
vertex 1140.012695 411.969910 0.000000
endloop
endfacet
facet normal 0.999667 -0.025810 0.000000
outer loop
vertex 1140.012695 411.969910 1308.267700
vertex 1140.185547 418.660614 0.000000
vertex 1140.185547 418.660614 1308.267700
endloop
endfacet
facet normal 0.025823 0.999667 0.000000
outer loop
vertex 1113.654663 419.345947 1200.322266
vertex 1140.185547 418.660614 0.000000
vertex 1113.654663 419.345947 0.000000
endloop
endfacet
facet normal 0.025823 0.999667 0.000000
outer loop
vertex 1140.185547 418.660614 0.000000
vertex 1113.654663 419.345947 1200.322266
vertex 1140.185547 418.660614 1308.267700
endloop
endfacet
facet normal 0.025823 0.999667 0.000000
outer loop
vertex 1140.185547 418.660614 1308.267700
vertex 1113.654663 419.345947 1200.322266
vertex 1113.654663 419.345947 1308.267700
endloop
endfacet
facet normal 0.025825 0.999666 0.000000
outer loop
vertex 585.586914 426.292725 1308.267700
vertex 811.170776 420.465057 0.000000
vertex 585.586914 426.292725 0.000000
endloop
endfacet
facet normal 0.025825 0.999667 0.000000
outer loop
vertex 811.170776 420.465057 0.000000
vertex 585.586914 426.292725 1308.267700
vertex 811.170776 420.465057 1308.267700
endloop
endfacet
facet normal 0.025825 0.999667 0.000000
outer loop
vertex 1140.012695 411.969910 1308.267700
vertex 1358.163818 406.334320 0.000000
vertex 1140.012695 411.969910 0.000000
endloop
endfacet
facet normal 0.025825 0.999666 0.000000
outer loop
vertex 1358.163818 406.334320 0.000000
vertex 1140.012695 411.969910 1308.267700
vertex 1358.163818 406.334320 1308.267700
endloop
endfacet
facet normal -0.999667 0.025822 0.000000
outer loop
vertex 1113.654663 419.345947 1308.267700
vertex 1111.733154 344.961365 1200.322266
vertex 1111.733154 344.961365 1308.267700
endloop
endfacet
facet normal -0.999666 0.025826 0.000000
outer loop
vertex 1111.733154 344.961365 1200.322266
vertex 1113.654663 419.345947 1308.267700
vertex 1113.654663 419.345947 1200.322266
endloop
endfacet
facet normal 0.999667 -0.025803 0.000000
outer loop
vertex 844.190674 429.063995 0.000000
vertex 844.119507 426.309052 1198.874512
vertex 844.119507 426.309052 0.000000
endloop
endfacet
facet normal 0.999667 -0.025824 0.000000
outer loop
vertex 844.119507 426.309052 1198.874512
vertex 842.197937 351.924408 1308.267700
vertex 842.197937 351.924408 1198.874512
endloop
endfacet
facet normal 0.999667 -0.025825 0.000000
outer loop
vertex 842.197937 351.924408 1308.267700
vertex 844.119507 426.309052 1198.874512
vertex 844.190674 429.063995 1308.267700
endloop
endfacet
facet normal 0.999666 -0.025829 0.000000
outer loop
vertex 844.190674 429.063995 1308.267700
vertex 844.119507 426.309052 1198.874512
vertex 844.190674 429.063995 0.000000
endloop
endfacet
facet normal -0.025825 -0.999667 0.000000
outer loop
vertex 781.673462 -409.364868 1308.267700
vertex 564.144104 -403.745300 0.000000
vertex 781.673462 -409.364868 0.000000
endloop
endfacet
facet normal -0.025825 -0.999667 0.000000
outer loop
vertex 564.144104 -403.745300 0.000000
vertex 781.673462 -409.364868 1308.267700
vertex 564.144104 -403.745300 1308.267700
endloop
endfacet
facet normal -0.025825 -0.999666 0.000000
outer loop
vertex 1079.780273 -343.419464 1308.267700
vertex 812.588623 -336.516937 1200.524048
vertex 1079.780273 -343.419464 1199.646362
endloop
endfacet
facet normal -0.025825 -0.999666 0.000000
outer loop
vertex 812.588623 -336.516937 1200.524048
vertex 1079.780273 -343.419464 1308.267700
vertex 812.588623 -336.516937 1308.267700
endloop
endfacet
facet normal -0.999667 0.025822 0.000000
outer loop
vertex 1077.685913 -424.494751 1308.267700
vertex 1077.787476 -420.559052 1199.646362
vertex 1077.685913 -424.494751 0.000000
endloop
endfacet
facet normal -0.999666 0.025825 0.000001
outer loop
vertex 1077.787476 -420.559052 1199.646362
vertex 1077.685913 -424.494751 1308.267700
vertex 1079.780273 -343.419464 1308.267700
endloop
endfacet
facet normal -0.999667 0.025824 0.000000
outer loop
vertex 1077.787476 -420.559052 1199.646362
vertex 1079.780273 -343.419464 1308.267700
vertex 1079.780273 -343.419464 1199.646362
endloop
endfacet
facet normal -0.999666 0.025831 0.000000
outer loop
vertex 1077.787476 -420.559052 0.000000
vertex 1077.685913 -424.494751 0.000000
vertex 1077.787476 -420.559052 1199.646362
endloop
endfacet
facet normal 0.999666 -0.025837 0.000000
outer loop
vertex 810.595825 -413.656555 0.000000
vertex 810.463684 -418.772919 1308.267700
vertex 810.463684 -418.772919 0.000000
endloop
endfacet
facet normal 0.999668 -0.025776 0.000000
outer loop
vertex 810.463684 -418.772919 1308.267700
vertex 810.595825 -413.656555 0.000000
vertex 810.595825 -413.656555 1200.524048
endloop
endfacet
facet normal 0.999667 -0.025825 -0.000000
outer loop
vertex 810.463684 -418.772919 1308.267700
vertex 810.595825 -413.656555 1200.524048
vertex 812.588623 -336.516937 1308.267700
endloop
endfacet
facet normal 0.999667 -0.025824 0.000000
outer loop
vertex 812.588623 -336.516937 1308.267700
vertex 810.595825 -413.656555 1200.524048
vertex 812.588623 -336.516937 1200.524048
endloop
endfacet
facet normal -0.999666 0.025827 0.000000
outer loop
vertex 795.297485 -312.032745 1308.267700
vertex 793.263977 -390.746643 1292.519653
vertex 793.263977 -390.746643 1308.267700
endloop
endfacet
facet normal -0.999667 0.025824 0.000000
outer loop
vertex 793.263977 -390.746643 1292.519653
vertex 795.297485 -312.032745 1308.267700
vertex 795.297485 -312.032745 1292.519653
endloop
endfacet
facet normal -0.000000 0.000000 1.000000
outer loop
vertex 1345.656616 -77.811256 136.913147
vertex 1439.484863 63.119720 136.913147
vertex 1349.357422 65.448059 136.913147
endloop
endfacet
facet normal -0.000000 0.000000 1.000000
outer loop
vertex 1439.484863 63.119720 136.913147
vertex 1345.656616 -77.811256 136.913147
vertex 1435.783936 -80.139557 136.913147
endloop
endfacet
facet normal 0.000000 0.000000 -1.000000
outer loop
vertex 1439.484863 63.119720 125.102173
vertex 1348.514160 32.803467 125.102173
vertex 1349.357422 65.448059 125.102173
endloop
endfacet
facet normal 0.000000 0.000000 -1.000000
outer loop
vertex 1348.514160 32.803467 125.102173
vertex 1439.484863 63.119720 125.102173
vertex 1346.400879 -48.998543 125.102173
endloop
endfacet
facet normal -0.000002 0.000000 -1.000000
outer loop
vertex 1346.400879 -48.998543 125.102173
vertex 1439.484863 63.119720 125.102173
vertex 1345.656616 -77.811256 125.102173
endloop
endfacet
facet normal 0.000000 0.000000 -1.000000
outer loop
vertex 1345.656616 -77.811256 125.102173
vertex 1439.484863 63.119720 125.102173
vertex 1435.783936 -80.139557 125.102173
endloop
endfacet
facet normal 0.000000 0.000000 -1.000000
outer loop
vertex 1402.573120 219.765930 137.423096
vertex 1349.696289 78.564682 137.423096
vertex 1353.376953 221.036835 137.423096
endloop
endfacet
facet normal 0.000000 0.000000 -1.000000
outer loop
vertex 1349.696289 78.564682 137.423096
vertex 1402.573120 219.765930 137.423096
vertex 1398.892578 77.293793 137.423096
endloop
endfacet
facet normal -0.000001 0.000000 1.000000
outer loop
vertex 1349.696289 78.564682 1200.021484
vertex 1402.573120 219.765930 1200.021484
vertex 1353.376953 221.036835 1200.021484
endloop
endfacet
facet normal 0.000000 0.000000 1.000000
outer loop
vertex 1402.573120 219.765930 1200.021484
vertex 1349.696289 78.564682 1200.021484
vertex 1398.892578 77.293793 1200.021484
endloop
endfacet
facet normal -0.000001 0.000000 1.000000
outer loop
vertex 1341.624146 -233.906693 1200.133057
vertex 1394.531372 -91.524734 1200.133057
vertex 1345.335205 -90.253830 1200.133057
endloop
endfacet
facet normal 0.000002 0.000000 1.000000
outer loop
vertex 1394.531372 -91.524734 1200.133057
vertex 1341.624146 -233.906693 1200.133057
vertex 1390.820312 -235.177612 1200.133057
endloop
endfacet
facet normal 0.000001 0.000000 1.000000
outer loop
vertex 585.065674 -385.368134 1292.519653
vertex 813.720581 401.115173 1292.519653
vertex 605.522339 406.493652 1292.519653
endloop
endfacet
facet normal -0.000001 0.000000 1.000000
outer loop
vertex 813.720581 401.115173 1292.519653
vertex 585.065674 -385.368134 1292.519653
vertex 793.263977 -390.746643 1292.519653
endloop
endfacet
facet normal -0.996731 0.000000 -0.080790
outer loop
vertex 813.720581 401.115173 1292.519653
vertex 793.263977 -390.746643 1292.519653
vertex 811.676941 322.007690 1292.519653
endloop
endfacet
facet normal 0.950471 0.000000 0.310813
outer loop
vertex 811.676941 322.007690 1292.519653
vertex 793.263977 -390.746643 1292.519653
vertex 795.297485 -312.032745 1292.519653
endloop
endfacet
facet normal 0.000000 0.000000 1.000000
outer loop
vertex 1064.679199 34.922268 1292.519653
vertex 1066.036865 87.476738 1292.519653
vertex 834.047485 40.880295 1292.519653
endloop
endfacet
facet normal 0.000000 0.000000 1.000000
outer loop
vertex 811.676941 322.007690 1292.519653
vertex 834.047485 40.880295 1292.519653
vertex 1128.765869 313.816162 1292.519653
endloop
endfacet
facet normal 0.000000 0.000000 1.000000
outer loop
vertex 834.047485 40.880295 1292.519653
vertex 811.676941 322.007690 1292.519653
vertex 795.297485 -312.032745 1292.519653
endloop
endfacet
facet normal -0.000002 0.000000 1.000000
outer loop
vertex 1128.765869 313.816162 1292.519653
vertex 834.047485 40.880295 1292.519653
vertex 1066.036865 87.476738 1292.519653
endloop
endfacet
facet normal -0.000000 0.000000 1.000000
outer loop
vertex 1128.765869 313.816162 1292.519653
vertex 1066.036865 87.476738 1292.519653
vertex 1236.058838 83.084473 1292.519653
endloop
endfacet
facet normal 0.000000 0.000000 1.000000
outer loop
vertex 795.297485 -312.032745 1292.519653
vertex 830.976929 -77.977692 1292.519653
vertex 834.047485 40.880295 1292.519653
endloop
endfacet
facet normal -0.000000 0.000000 1.000000
outer loop
vertex 830.976929 -77.977692 1292.519653
vertex 795.297485 -312.032745 1292.519653
vertex 1097.952393 -319.851379 1292.519653
endloop
endfacet
facet normal -0.000003 0.000000 1.000000
outer loop
vertex 830.976929 -77.977692 1292.519653
vertex 1097.952393 -319.851379 1292.519653
vertex 927.424683 -80.469276 1292.519653
endloop
endfacet
facet normal 0.000000 0.000000 1.000000
outer loop
vertex 927.424683 -80.469276 1292.519653
vertex 1097.952393 -319.851379 1292.519653
vertex 1060.983643 -108.127289 1292.519653
endloop
endfacet
facet normal 0.000000 0.000000 1.000000
outer loop
vertex 927.424683 -80.469276 1292.519653
vertex 1060.983643 -108.127289 1292.519653
vertex 1063.143921 -24.506735 1292.519653
endloop
endfacet
facet normal 0.000002 0.000000 1.000000
outer loop
vertex 1060.983643 -108.127289 1292.519653
vertex 1097.952393 -319.851379 1292.519653
vertex 1231.005737 -112.519554 1292.519653
endloop
endfacet
facet normal -0.000005 0.000000 1.000000
outer loop
vertex 1231.005737 -112.519554 1292.519653
vertex 1097.952393 -319.851379 1292.519653
vertex 1095.918945 -398.565277 1292.519653
endloop
endfacet
facet normal 0.000000 0.000000 1.000000
outer loop
vertex 1231.005737 -112.519554 1292.519653
vertex 1095.918945 -398.565277 1292.519653
vertex 1315.171631 -397.928040 1292.519653
endloop
endfacet
facet normal -0.000002 0.000000 1.000000
outer loop
vertex 1231.005737 -112.519554 1292.519653
vertex 1315.171631 -397.928040 1292.519653
vertex 1335.465576 387.636627 1292.519653
endloop
endfacet
facet normal 0.000000 0.000000 1.000000
outer loop
vertex 1128.765869 313.816162 1292.519653
vertex 1335.465576 387.636627 1292.519653
vertex 1130.809448 392.923676 1292.519653
endloop
endfacet
facet normal 0.000000 0.000000 1.000000
outer loop
vertex 1335.465576 387.636627 1292.519653
vertex 1128.765869 313.816162 1292.519653
vertex 1236.058838 83.084473 1292.519653
endloop
endfacet
facet normal 0.000003 0.000000 1.000000
outer loop
vertex 1335.465576 387.636627 1292.519653
vertex 1236.058838 83.084473 1292.519653
vertex 1231.005737 -112.519554 1292.519653
endloop
endfacet
facet normal 0.000002 0.000000 1.000000
outer loop
vertex 1063.143921 -24.506735 1292.519653
vertex 928.959961 -21.040287 1292.519653
vertex 927.424683 -80.469276 1292.519653
endloop
endfacet
facet normal 0.003283 -0.000085 0.999995
outer loop
vertex 810.595825 -413.656555 1200.524048
vertex 1079.780273 -343.419464 1199.646362
vertex 812.588623 -336.516937 1200.524048
endloop
endfacet
facet normal 0.003282 -0.000085 0.999995
outer loop
vertex 1079.780273 -343.419464 1199.646362
vertex 810.595825 -413.656555 1200.524048
vertex 1077.787476 -420.559052 1199.646362
endloop
endfacet
facet normal -0.005368 0.000139 0.999986
outer loop
vertex 842.197937 351.924408 1198.874512
vertex 1113.654663 419.345947 1200.322266
vertex 844.119507 426.309052 1198.874512
endloop
endfacet
facet normal -0.005367 0.000139 0.999986
outer loop
vertex 1113.654663 419.345947 1200.322266
vertex 842.197937 351.924408 1198.874512
vertex 1111.733154 344.961365 1200.322266
endloop
endfacet
facet normal 0.000000 0.000000 1.000000
outer loop
vertex 927.424683 -80.469276 1426.771606
vertex 928.959961 -21.040287 1426.771606
vertex 830.976929 -77.977692 1426.771606
endloop
endfacet
facet normal 0.000001 0.000000 1.000000
outer loop
vertex 834.047485 40.880295 1426.771606
vertex 928.959961 -21.040287 1426.771606
vertex 1064.679199 34.922268 1426.771606
endloop
endfacet
facet normal 0.000000 0.000000 1.000000
outer loop
vertex 928.959961 -21.040287 1426.771606
vertex 834.047485 40.880295 1426.771606
vertex 830.976929 -77.977692 1426.771606
endloop
endfacet
facet normal 0.000000 0.000000 1.000000
outer loop
vertex 1064.679199 34.922268 1426.771606
vertex 928.959961 -21.040287 1426.771606
vertex 1063.143921 -24.506735 1426.771606
endloop
endfacet
facet normal -0.000000 0.000000 1.000000
outer loop
vertex 605.522339 406.493652 1308.267700
vertex 811.170776 420.465057 1308.267700
vertex 585.586914 426.292725 1308.267700
endloop
endfacet
facet normal 0.000000 0.000000 1.000000
outer loop
vertex 811.170776 420.465057 1308.267700
vertex 605.522339 406.493652 1308.267700
vertex 813.720581 401.115173 1308.267700
endloop
endfacet
facet normal 0.000002 0.000000 1.000000
outer loop
vertex 564.144104 -403.745300 1308.267700
vertex 605.522339 406.493652 1308.267700
vertex 585.586914 426.292725 1308.267700
endloop
endfacet
facet normal -0.000000 0.000000 1.000000
outer loop
vertex 605.522339 406.493652 1308.267700
vertex 564.144104 -403.745300 1308.267700
vertex 585.065674 -385.368134 1308.267700
endloop
endfacet
facet normal 0.000000 0.000000 1.000000
outer loop
vertex 585.065674 -385.368134 1308.267700
vertex 564.144104 -403.745300 1308.267700
vertex 781.673462 -409.364868 1308.267700
endloop
endfacet
facet normal -0.000001 0.000000 1.000000
outer loop
vertex 585.065674 -385.368134 1308.267700
vertex 781.673462 -409.364868 1308.267700
vertex 793.263977 -390.746643 1308.267700
endloop
endfacet
facet normal 0.000041 0.000000 1.000000
outer loop
vertex 793.263977 -390.746643 1308.267700
vertex 781.673462 -409.364868 1308.267700
vertex 781.449829 -418.023438 1308.267700
endloop
endfacet
facet normal -0.000004 0.000000 1.000000
outer loop
vertex 793.263977 -390.746643 1308.267700
vertex 781.449829 -418.023438 1308.267700
vertex 810.463684 -418.772919 1308.267700
endloop
endfacet
facet normal 0.000000 0.000000 1.000000
outer loop
vertex 793.263977 -390.746643 1308.267700
vertex 810.463684 -418.772919 1308.267700
vertex 812.588623 -336.516937 1308.267700
endloop
endfacet
facet normal 0.000000 0.000000 1.000000
outer loop
vertex 811.170776 420.465057 1308.267700
vertex 844.190674 429.063995 1308.267700
vertex 811.414795 429.910706 1308.267700
endloop
endfacet
facet normal -0.000006 0.000000 1.000000
outer loop
vertex 844.190674 429.063995 1308.267700
vertex 811.170776 420.465057 1308.267700
vertex 813.720581 401.115173 1308.267700
endloop
endfacet
facet normal 0.000000 0.000000 1.000000
outer loop
vertex 844.190674 429.063995 1308.267700
vertex 813.720581 401.115173 1308.267700
vertex 811.676941 322.007690 1308.267700
endloop
endfacet
facet normal 0.000003 0.000000 1.000000
outer loop
vertex 844.190674 429.063995 1308.267700
vertex 811.676941 322.007690 1308.267700
vertex 842.197937 351.924408 1308.267700
endloop
endfacet
facet normal -0.000001 0.000000 1.000000
outer loop
vertex 842.197937 351.924408 1308.267700
vertex 811.676941 322.007690 1308.267700
vertex 1128.765869 313.816162 1308.267700
endloop
endfacet
facet normal 0.000001 0.000000 1.000000
outer loop
vertex 842.197937 351.924408 1308.267700
vertex 1128.765869 313.816162 1308.267700
vertex 1111.733154 344.961365 1308.267700
endloop
endfacet
facet normal 0.000000 0.000000 1.000000
outer loop
vertex 1111.733154 344.961365 1308.267700
vertex 1128.765869 313.816162 1308.267700
vertex 1130.809448 392.923676 1308.267700
endloop
endfacet
facet normal 0.000000 0.000000 1.000000
outer loop
vertex 795.297485 -312.032745 1308.267700
vertex 812.588623 -336.516937 1308.267700
vertex 1097.952393 -319.851379 1308.267700
endloop
endfacet
facet normal 0.000011 0.000000 1.000000
outer loop
vertex 812.588623 -336.516937 1308.267700
vertex 795.297485 -312.032745 1308.267700
vertex 793.263977 -390.746643 1308.267700
endloop
endfacet
facet normal 0.000000 0.000000 1.000000
outer loop
vertex 1097.952393 -319.851379 1308.267700
vertex 812.588623 -336.516937 1308.267700
vertex 1079.780273 -343.419464 1308.267700
endloop
endfacet
facet normal -0.000011 0.000000 1.000000
outer loop
vertex 1097.952393 -319.851379 1308.267700
vertex 1079.780273 -343.419464 1308.267700
vertex 1077.685913 -424.494751 1308.267700
endloop
endfacet
facet normal 0.000006 0.000000 1.000000
outer loop
vertex 1097.952393 -319.851379 1308.267700
vertex 1077.685913 -424.494751 1308.267700
vertex 1095.918945 -398.565277 1308.267700
endloop
endfacet
facet normal -0.000005 0.000000 1.000000
outer loop
vertex 1095.918945 -398.565277 1308.267700
vertex 1077.685913 -424.494751 1308.267700
vertex 1109.286621 -425.311096 1308.267700
endloop
endfacet
facet normal 0.000000 0.000000 1.000000
outer loop
vertex 1095.918945 -398.565277 1308.267700
vertex 1109.286621 -425.311096 1308.267700
vertex 1109.479736 -417.833282 1308.267700
endloop
endfacet
facet normal -0.000000 0.000000 1.000000
outer loop
vertex 1109.479736 -417.833282 1308.267700
vertex 1315.171631 -397.928040 1308.267700
vertex 1095.918945 -398.565277 1308.267700
endloop
endfacet
facet normal 0.000001 0.000000 1.000000
outer loop
vertex 1315.171631 -397.928040 1308.267700
vertex 1109.479736 -417.833282 1308.267700
vertex 1336.720947 -423.703705 1308.267700
endloop
endfacet
facet normal 0.000002 0.000000 1.000000
outer loop
vertex 1111.733154 344.961365 1308.267700
vertex 1140.185547 418.660614 1308.267700
vertex 1113.654663 419.345947 1308.267700
endloop
endfacet
facet normal -0.000189 0.000000 1.000000
outer loop
vertex 1140.185547 418.660614 1308.267700
vertex 1111.733154 344.961365 1308.267700
vertex 1130.809448 392.923676 1308.267700
endloop
endfacet
facet normal 0.000000 0.000000 1.000000
outer loop
vertex 1140.185547 418.660614 1308.267700
vertex 1130.809448 392.923676 1308.267700
vertex 1140.012695 411.969910 1308.267700
endloop
endfacet
facet normal -0.000000 0.000000 1.000000
outer loop
vertex 1140.012695 411.969910 1308.267700
vertex 1130.809448 392.923676 1308.267700
vertex 1335.465576 387.636627 1308.267700
endloop
endfacet
facet normal 0.000000 0.000000 1.000000
outer loop
vertex 1140.012695 411.969910 1308.267700
vertex 1335.465576 387.636627 1308.267700
vertex 1358.163818 406.334320 1308.267700
endloop
endfacet
facet normal 0.000014 0.000000 1.000000
outer loop
vertex 1358.163818 406.334320 1308.267700
vertex 1335.465576 387.636627 1308.267700
vertex 1315.171631 -397.928040 1308.267700
endloop
endfacet
facet normal -0.000017 0.000000 1.000000
outer loop
vertex 1358.163818 406.334320 1308.267700
vertex 1315.171631 -397.928040 1308.267700
vertex 1336.720947 -423.703705 1308.267700
endloop
endfacet
facet normal -0.000000 0.000000 1.000000
outer loop
vertex 1064.679199 34.922268 1426.771606
vertex 1236.058838 83.084473 1426.771606
vertex 1066.036865 87.476738 1426.771606
endloop
endfacet
facet normal 0.000000 0.000000 1.000000
outer loop
vertex 1236.058838 83.084473 1426.771606
vertex 1064.679199 34.922268 1426.771606
vertex 1063.143921 -24.506735 1426.771606
endloop
endfacet
facet normal 0.000001 0.000000 1.000000
outer loop
vertex 1236.058838 83.084473 1426.771606
vertex 1063.143921 -24.506735 1426.771606
vertex 1060.983643 -108.127289 1426.771606
endloop
endfacet
facet normal -0.000001 0.000000 1.000000
outer loop
vertex 1236.058838 83.084473 1426.771606
vertex 1060.983643 -108.127289 1426.771606
vertex 1231.005737 -112.519554 1426.771606
endloop
endfacet
facet normal 0.000001 0.000000 -1.000000
outer loop
vertex 1394.531372 -91.524734 140.290588
vertex 1341.624146 -233.906693 140.290588
vertex 1345.335205 -90.253830 140.290588
endloop
endfacet
facet normal -0.000001 0.000000 -1.000000
outer loop
vertex 1341.624146 -233.906693 140.290588
vertex 1394.531372 -91.524734 140.290588
vertex 1390.820312 -235.177612 140.290588
endloop
endfacet
facet normal 0.999667 -0.025825 0.000000
outer loop
vertex 1348.514160 32.803467 22.297607
vertex 1346.400879 -48.998543 125.102173
vertex 1346.400879 -48.998543 22.297607
endloop
endfacet
facet normal 0.999667 -0.025825 0.000000
outer loop
vertex 1346.400879 -48.998543 125.102173
vertex 1348.514160 32.803467 22.297607
vertex 1348.514160 32.803467 125.102173
endloop
endfacet
facet normal 0.025825 0.999667 0.000000
outer loop
vertex 1349.357422 65.448059 136.913147
vertex 1439.484863 63.119720 125.102173
vertex 1349.357422 65.448059 125.102173
endloop
endfacet
facet normal 0.025825 0.999667 0.000000
outer loop
vertex 1439.484863 63.119720 125.102173
vertex 1349.357422 65.448059 136.913147
vertex 1439.484863 63.119720 136.913147
endloop
endfacet
facet normal -0.025825 -0.999667 0.000000
outer loop
vertex 1435.783936 -80.139557 136.913147
vertex 1345.656616 -77.811256 125.102173
vertex 1435.783936 -80.139557 125.102173
endloop
endfacet
facet normal -0.025825 -0.999667 0.000000
outer loop
vertex 1345.656616 -77.811256 125.102173
vertex 1435.783936 -80.139557 136.913147
vertex 1345.656616 -77.811256 136.913147
endloop
endfacet
facet normal 0.999666 -0.025825 0.000000
outer loop
vertex 1439.484863 63.119720 125.102173
vertex 1435.783936 -80.139557 136.913147
vertex 1435.783936 -80.139557 125.102173
endloop
endfacet
facet normal 0.999666 -0.025825 0.000000
outer loop
vertex 1435.783936 -80.139557 136.913147
vertex 1439.484863 63.119720 125.102173
vertex 1439.484863 63.119720 136.913147
endloop
endfacet
facet normal 0.999667 -0.025822 0.000000
outer loop
vertex 1352.867188 201.309540 46.051086
vertex 1350.742310 119.053528 128.334534
vertex 1350.742310 119.053528 46.051086
endloop
endfacet
facet normal 0.999667 -0.025826 0.000000
outer loop
vertex 1350.742310 119.053528 128.334534
vertex 1352.867188 201.309540 46.051086
vertex 1352.867188 201.309540 128.334534
endloop
endfacet
facet normal 0.999667 -0.025824 0.000000
outer loop
vertex 1344.472656 -123.640762 46.380554
vertex 1342.327393 -206.683914 129.451416
vertex 1342.327393 -206.683914 46.380554
endloop
endfacet
facet normal 0.999667 -0.025824 0.000000
outer loop
vertex 1342.327393 -206.683914 129.451416
vertex 1344.472656 -123.640762 46.380554
vertex 1344.472656 -123.640762 129.451416
endloop
endfacet
facet normal 0.025825 0.999667 0.000000
outer loop
vertex 1353.376953 221.036835 1200.021484
vertex 1402.573120 219.765930 137.423096
vertex 1353.376953 221.036835 137.423096
endloop
endfacet
facet normal 0.025825 0.999666 0.000000
outer loop
vertex 1402.573120 219.765930 137.423096
vertex 1353.376953 221.036835 1200.021484
vertex 1402.573120 219.765930 1200.021484
endloop
endfacet
facet normal -0.025824 -0.999667 0.000000
outer loop
vertex 1398.892578 77.293793 1200.021484
vertex 1349.696289 78.564682 137.423096
vertex 1398.892578 77.293793 137.423096
endloop
endfacet
facet normal -0.025824 -0.999666 0.000000
outer loop
vertex 1349.696289 78.564682 137.423096
vertex 1398.892578 77.293793 1200.021484
vertex 1349.696289 78.564682 1200.021484
endloop
endfacet
facet normal 0.999666 -0.025825 0.000000
outer loop
vertex 1402.573120 219.765930 137.423096
vertex 1398.892578 77.293793 1200.021484
vertex 1398.892578 77.293793 137.423096
endloop
endfacet
facet normal 0.999667 -0.025824 0.000000
outer loop
vertex 1398.892578 77.293793 1200.021484
vertex 1402.573120 219.765930 137.423096
vertex 1402.573120 219.765930 1200.021484
endloop
endfacet
facet normal 0.025825 0.999667 0.000000
outer loop
vertex 1345.335205 -90.253830 1200.133057
vertex 1394.531372 -91.524734 140.290588
vertex 1345.335205 -90.253830 140.290588
endloop
endfacet
facet normal 0.025825 0.999667 0.000000
outer loop
vertex 1394.531372 -91.524734 140.290588
vertex 1345.335205 -90.253830 1200.133057
vertex 1394.531372 -91.524734 1200.133057
endloop
endfacet
facet normal -0.025825 -0.999667 0.000000
outer loop
vertex 1390.820312 -235.177612 1200.133057
vertex 1341.624146 -233.906693 140.290588
vertex 1390.820312 -235.177612 140.290588
endloop
endfacet
facet normal -0.025825 -0.999667 0.000000
outer loop
vertex 1341.624146 -233.906693 140.290588
vertex 1390.820312 -235.177612 1200.133057
vertex 1341.624146 -233.906693 1200.133057
endloop
endfacet
facet normal 0.999666 -0.025824 0.000000
outer loop
vertex 1394.531372 -91.524734 140.290588
vertex 1390.820312 -235.177612 1200.133057
vertex 1390.820312 -235.177612 140.290588
endloop
endfacet
facet normal 0.999666 -0.025826 0.000000
outer loop
vertex 1390.820312 -235.177612 1200.133057
vertex 1394.531372 -91.524734 140.290588
vertex 1394.531372 -91.524734 1200.133057
endloop
endfacet
facet normal -0.999667 0.025825 0.000000
outer loop
vertex 571.338745 -125.246246 126.741455
vertex 569.417114 -199.630890 52.331970
vertex 569.417114 -199.630890 126.741455
endloop
endfacet
facet normal -0.999666 0.025826 0.000000
outer loop
vertex 569.417114 -199.630890 52.331970
vertex 571.338745 -125.246246 126.741455
vertex 571.338745 -125.246246 52.331970
endloop
endfacet
facet normal 0.000074 0.000000 1.000000
outer loop
vertex 526.355042 -220.076477 1065.236572
vertex 530.602051 -70.923828 1065.236572
vertex 530.208435 -70.913651 1065.236572
endloop
endfacet
facet normal -0.000096 0.000000 1.000000
outer loop
vertex 530.602051 -70.923828 1065.236572
vertex 526.355042 -220.076477 1065.236572
vertex 526.748596 -220.086639 1065.236572
endloop
endfacet
facet normal -0.999666 0.025825 0.000000
outer loop
vertex 530.602051 -70.923828 1119.556396
vertex 526.748596 -220.086639 1065.236572
vertex 526.748596 -220.086639 1119.556396
endloop
endfacet
facet normal -0.999666 0.025826 0.000000
outer loop
vertex 526.748596 -220.086639 1065.236572
vertex 530.602051 -70.923828 1119.556396
vertex 530.602051 -70.923828 1065.236572
endloop
endfacet
facet normal 0.999666 -0.025825 0.000000
outer loop
vertex 928.959961 -21.040287 1292.519653
vertex 927.424683 -80.469276 1426.771606
vertex 927.424683 -80.469276 1292.519653
endloop
endfacet
facet normal 0.999666 -0.025825 0.000000
outer loop
vertex 927.424683 -80.469276 1426.771606
vertex 928.959961 -21.040287 1292.519653
vertex 928.959961 -21.040287 1426.771606
endloop
endfacet
facet normal -0.025825 -0.999666 0.000000
outer loop
vertex 927.424683 -80.469276 1426.771606
vertex 830.976929 -77.977692 1292.519653
vertex 927.424683 -80.469276 1292.519653
endloop
endfacet
facet normal -0.025825 -0.999667 0.000000
outer loop
vertex 830.976929 -77.977692 1292.519653
vertex 927.424683 -80.469276 1426.771606
vertex 830.976929 -77.977692 1426.771606
endloop
endfacet
facet normal -0.025825 -0.999667 0.000000
outer loop
vertex 1063.143921 -24.506735 1426.771606
vertex 928.959961 -21.040287 1292.519653
vertex 1063.143921 -24.506735 1292.519653
endloop
endfacet
facet normal -0.025825 -0.999667 0.000000
outer loop
vertex 928.959961 -21.040287 1292.519653
vertex 1063.143921 -24.506735 1426.771606
vertex 928.959961 -21.040287 1426.771606
endloop
endfacet
facet normal -0.999666 0.025826 0.000000
outer loop
vertex 834.047485 40.880295 1426.771606
vertex 830.976929 -77.977692 1292.519653
vertex 830.976929 -77.977692 1426.771606
endloop
endfacet
facet normal -0.999666 0.025826 0.000000
outer loop
vertex 830.976929 -77.977692 1292.519653
vertex 834.047485 40.880295 1426.771606
vertex 834.047485 40.880295 1292.519653
endloop
endfacet
facet normal 0.025825 0.999667 0.000000
outer loop
vertex 834.047485 40.880295 1426.771606
vertex 1064.679199 34.922268 1292.519653
vertex 834.047485 40.880295 1292.519653
endloop
endfacet
facet normal 0.025825 0.999666 0.000000
outer loop
vertex 1064.679199 34.922268 1292.519653
vertex 834.047485 40.880295 1426.771606
vertex 1064.679199 34.922268 1426.771606
endloop
endfacet
facet normal -0.999667 0.025824 0.000000
outer loop
vertex 1063.143921 -24.506735 1426.771606
vertex 1060.983643 -108.127289 1292.519653
vertex 1060.983643 -108.127289 1426.771606
endloop
endfacet
facet normal -0.999666 0.025827 0.000000
outer loop
vertex 1060.983643 -108.127289 1292.519653
vertex 1063.143921 -24.506735 1426.771606
vertex 1063.143921 -24.506735 1292.519653
endloop
endfacet
facet normal -0.999667 0.025822 0.000000
outer loop
vertex 1066.036865 87.476738 1426.771606
vertex 1064.679199 34.922268 1292.519653
vertex 1064.679199 34.922268 1426.771606
endloop
endfacet
facet normal -0.999666 0.025827 0.000000
outer loop
vertex 1064.679199 34.922268 1292.519653
vertex 1066.036865 87.476738 1426.771606
vertex 1066.036865 87.476738 1292.519653
endloop
endfacet
facet normal 0.999666 -0.025826 0.000000
outer loop
vertex 1336.720947 -423.703705 0.000000
vertex 1341.624146 -233.906693 140.290588
vertex 1336.720947 -423.703705 1308.267700
endloop
endfacet
facet normal 0.999667 -0.025825 -0.000000
outer loop
vertex 1341.624146 -233.906693 140.290588
vertex 1336.720947 -423.703705 0.000000
vertex 1342.327393 -206.683914 46.380554
endloop
endfacet
facet normal 0.999666 -0.025824 -0.000002
outer loop
vertex 1342.327393 -206.683914 46.380554
vertex 1336.720947 -423.703705 0.000000
vertex 1346.400879 -48.998543 22.297607
endloop
endfacet
facet normal 0.999666 -0.025825 0.000002
outer loop
vertex 1346.400879 -48.998543 22.297607
vertex 1336.720947 -423.703705 0.000000
vertex 1358.163818 406.334320 0.000000
endloop
endfacet
facet normal 0.999667 -0.025824 -0.000001
outer loop
vertex 1342.327393 -206.683914 46.380554
vertex 1346.400879 -48.998543 22.297607
vertex 1344.472656 -123.640762 46.380554
endloop
endfacet
facet normal 0.999667 -0.025826 0.000000
outer loop
vertex 1344.472656 -123.640762 46.380554
vertex 1346.400879 -48.998543 22.297607
vertex 1344.472656 -123.640762 129.451416
endloop
endfacet
facet normal 0.999666 -0.025830 -0.000001
outer loop
vertex 1344.472656 -123.640762 129.451416
vertex 1346.400879 -48.998543 22.297607
vertex 1345.335205 -90.253830 140.290588
endloop
endfacet
facet normal 0.999666 -0.025837 -0.000000
outer loop
vertex 1345.335205 -90.253830 140.290588
vertex 1346.400879 -48.998543 22.297607
vertex 1345.656616 -77.811256 125.102173
endloop
endfacet
facet normal 0.999667 -0.025793 0.000000
outer loop
vertex 1345.335205 -90.253830 140.290588
vertex 1345.656616 -77.811256 125.102173
vertex 1345.335205 -90.253830 1200.133057
endloop
endfacet
facet normal 0.999666 -0.025825 -0.000008
outer loop
vertex 1346.400879 -48.998543 22.297607
vertex 1358.163818 406.334320 0.000000
vertex 1348.514160 32.803467 22.297607
endloop
endfacet
facet normal 0.999666 -0.025826 0.000000
outer loop
vertex 1348.514160 32.803467 22.297607
vertex 1358.163818 406.334320 0.000000
vertex 1350.742310 119.053528 46.051086
endloop
endfacet
facet normal 0.999667 -0.025825 0.000000
outer loop
vertex 1348.514160 32.803467 22.297607
vertex 1350.742310 119.053528 46.051086
vertex 1348.514160 32.803467 125.102173
endloop
endfacet
facet normal 0.999666 -0.025827 0.000002
outer loop
vertex 1348.514160 32.803467 125.102173
vertex 1350.742310 119.053528 46.051086
vertex 1349.357422 65.448059 125.102173
endloop
endfacet
facet normal 0.999667 -0.025805 0.000000
outer loop
vertex 1349.357422 65.448059 125.102173
vertex 1350.742310 119.053528 46.051086
vertex 1349.357422 65.448059 136.913147
endloop
endfacet
facet normal 0.999666 -0.025829 -0.000000
outer loop
vertex 1349.357422 65.448059 136.913147
vertex 1350.742310 119.053528 46.051086
vertex 1349.696289 78.564682 137.423096
endloop
endfacet
facet normal 0.999667 -0.025821 0.000007
outer loop
vertex 1350.742310 119.053528 46.051086
vertex 1358.163818 406.334320 0.000000
vertex 1352.867188 201.309540 46.051086
endloop
endfacet
facet normal 0.999666 -0.025827 0.000000
outer loop
vertex 1352.867188 201.309540 46.051086
vertex 1358.163818 406.334320 0.000000
vertex 1352.867188 201.309540 128.334534
endloop
endfacet
facet normal 0.999666 -0.025823 -0.000006
outer loop
vertex 1352.867188 201.309540 128.334534
vertex 1358.163818 406.334320 0.000000
vertex 1353.376953 221.036835 137.423096
endloop
endfacet
facet normal 0.999667 -0.025826 0.000000
outer loop
vertex 1353.376953 221.036835 137.423096
vertex 1358.163818 406.334320 0.000000
vertex 1353.376953 221.036835 1200.021484
endloop
endfacet
facet normal 0.999666 -0.025825 0.000001
outer loop
vertex 1336.720947 -423.703705 1308.267700
vertex 1341.624146 -233.906693 1200.133057
vertex 1358.163818 406.334320 1308.267700
endloop
endfacet
facet normal 0.999666 -0.025827 0.000000
outer loop
vertex 1341.624146 -233.906693 1200.133057
vertex 1336.720947 -423.703705 1308.267700
vertex 1341.624146 -233.906693 140.290588
endloop
endfacet
facet normal 0.999667 -0.025824 0.000000
outer loop
vertex 1358.163818 406.334320 1308.267700
vertex 1341.624146 -233.906693 1200.133057
vertex 1345.335205 -90.253830 1200.133057
endloop
endfacet
facet normal 0.999666 -0.025825 -0.000002
outer loop
vertex 1358.163818 406.334320 1308.267700
vertex 1345.335205 -90.253830 1200.133057
vertex 1349.696289 78.564682 1200.021484
endloop
endfacet
facet normal 0.999666 -0.025827 -0.000000
outer loop
vertex 1349.696289 78.564682 1200.021484
vertex 1345.335205 -90.253830 1200.133057
vertex 1345.656616 -77.811256 136.913147
endloop
endfacet
facet normal 0.999675 -0.025509 0.000000
outer loop
vertex 1345.656616 -77.811256 136.913147
vertex 1345.335205 -90.253830 1200.133057
vertex 1345.656616 -77.811256 125.102173
endloop
endfacet
facet normal 0.999666 -0.025824 -0.000000
outer loop
vertex 1349.696289 78.564682 1200.021484
vertex 1345.656616 -77.811256 136.913147
vertex 1349.357422 65.448059 136.913147
endloop
endfacet
facet normal 0.999667 -0.025812 0.000000
outer loop
vertex 1349.696289 78.564682 1200.021484
vertex 1349.357422 65.448059 136.913147
vertex 1349.696289 78.564682 137.423096
endloop
endfacet
facet normal 0.999667 -0.025825 0.000001
outer loop
vertex 1358.163818 406.334320 1308.267700
vertex 1349.696289 78.564682 1200.021484
vertex 1353.376953 221.036835 1200.021484
endloop
endfacet
facet normal 0.999666 -0.025825 0.000000
outer loop
vertex 1358.163818 406.334320 1308.267700
vertex 1353.376953 221.036835 1200.021484
vertex 1358.163818 406.334320 0.000000
endloop
endfacet
facet normal 0.999667 -0.025825 0.000002
outer loop
vertex 1349.696289 78.564682 137.423096
vertex 1350.742310 119.053528 128.334534
vertex 1353.376953 221.036835 137.423096
endloop
endfacet
facet normal 0.999666 -0.025833 0.000000
outer loop
vertex 1350.742310 119.053528 128.334534
vertex 1349.696289 78.564682 137.423096
vertex 1350.742310 119.053528 46.051086
endloop
endfacet
facet normal 0.999667 -0.025824 -0.000018
outer loop
vertex 1353.376953 221.036835 137.423096
vertex 1350.742310 119.053528 128.334534
vertex 1352.867188 201.309540 128.334534
endloop
endfacet
facet normal 0.999667 -0.025818 0.000000
outer loop
vertex 1346.400879 -48.998543 125.102173
vertex 1345.656616 -77.811256 125.102173
vertex 1346.400879 -48.998543 22.297607
endloop
endfacet
facet normal 0.999667 -0.025825 -0.000001
outer loop
vertex 1341.624146 -233.906693 140.290588
vertex 1342.327393 -206.683914 129.451416
vertex 1345.335205 -90.253830 140.290588
endloop
endfacet
facet normal 0.999667 -0.025826 0.000000
outer loop
vertex 1342.327393 -206.683914 129.451416
vertex 1341.624146 -233.906693 140.290588
vertex 1342.327393 -206.683914 46.380554
endloop
endfacet
facet normal 0.999667 -0.025823 -0.000006
outer loop
vertex 1345.335205 -90.253830 140.290588
vertex 1342.327393 -206.683914 129.451416
vertex 1344.472656 -123.640762 129.451416
endloop
endfacet
facet normal -0.999666 0.025825 0.000002
outer loop
vertex 572.713928 -72.011711 136.879211
vertex 569.417114 -199.630890 126.741455
vertex 568.860596 -221.174561 136.879211
endloop
endfacet
facet normal -0.999667 0.025826 -0.000006
outer loop
vertex 569.417114 -199.630890 126.741455
vertex 572.713928 -72.011711 136.879211
vertex 571.338745 -125.246246 126.741455
endloop
endfacet
facet normal -0.999666 0.025824 0.000000
outer loop
vertex 571.338745 -125.246246 126.741455
vertex 572.713928 -72.011711 136.879211
vertex 571.338745 -125.246246 52.331970
endloop
endfacet
facet normal -0.999666 0.025836 -0.000001
outer loop
vertex 568.860596 -221.174561 1119.556396
vertex 568.975647 -216.718201 1192.952637
vertex 569.012512 -215.293213 1119.556396
endloop
endfacet
facet normal -0.999665 0.025874 0.000000
outer loop
vertex 568.975647 -216.718201 1192.952637
vertex 568.860596 -221.174561 1119.556396
vertex 568.975647 -216.718201 1199.251831
endloop
endfacet
facet normal -0.999666 0.025825 -0.000001
outer loop
vertex 569.012512 -215.293213 1119.556396
vertex 568.975647 -216.718201 1192.952637
vertex 572.717224 -71.884644 1192.952637
endloop
endfacet
facet normal -0.999667 0.025823 0.000000
outer loop
vertex 569.012512 -215.293213 1119.556396
vertex 572.717224 -71.884644 1192.952637
vertex 569.012512 -215.293213 1065.225586
endloop
endfacet
facet normal -0.999667 0.025825 -0.000000
outer loop
vertex 569.012512 -215.293213 1065.225586
vertex 572.717224 -71.884644 1192.952637
vertex 572.591370 -76.756760 1119.556396
endloop
endfacet
facet normal -0.999666 0.025834 0.000000
outer loop
vertex 572.591370 -76.756760 1119.556396
vertex 572.717224 -71.884644 1192.952637
vertex 572.713928 -72.011711 1119.556396
endloop
endfacet
facet normal -0.999690 0.024893 0.000000
outer loop
vertex 572.713928 -72.011711 1119.556396
vertex 572.717224 -71.884644 1192.952637
vertex 572.713928 -72.011711 1065.236572
endloop
endfacet
facet normal -0.999649 0.026482 0.000000
outer loop
vertex 572.713928 -72.011711 1065.236572
vertex 572.717224 -71.884644 1192.952637
vertex 572.713928 -72.011711 136.879211
endloop
endfacet
facet normal -0.999666 0.025825 -0.000004
outer loop
vertex 581.148560 254.485291 137.228577
vertex 578.123413 137.383301 126.905151
vertex 577.274780 104.535309 137.228577
endloop
endfacet
facet normal -0.999666 0.025824 0.000004
outer loop
vertex 578.123413 137.383301 126.905151
vertex 581.148560 254.485291 137.228577
vertex 580.146667 215.703644 126.905151
endloop
endfacet
facet normal -0.999667 0.025825 0.000000
outer loop
vertex 580.146667 215.703644 126.905151
vertex 581.148560 254.485291 137.228577
vertex 580.146667 215.703644 48.558655
endloop
endfacet
facet normal -0.999666 0.025824 0.000000
outer loop
vertex 564.144104 -403.745300 1308.267700
vertex 568.975647 -216.718201 1199.251831
vertex 564.144104 -403.745300 0.000000
endloop
endfacet
facet normal -0.999667 0.025825 0.000000
outer loop
vertex 568.975647 -216.718201 1199.251831
vertex 564.144104 -403.745300 1308.267700
vertex 585.586914 426.292725 1308.267700
endloop
endfacet
facet normal -0.999666 0.025836 -0.000001
outer loop
vertex 564.144104 -403.745300 0.000000
vertex 568.975647 -216.718201 1199.251831
vertex 568.860596 -221.174561 1119.556396
endloop
endfacet
facet normal -0.999666 0.025826 -0.000000
outer loop
vertex 568.975647 -216.718201 1199.251831
vertex 585.586914 426.292725 1308.267700
vertex 572.717224 -71.884644 1199.251831
endloop
endfacet
facet normal -0.999667 0.025822 0.000000
outer loop
vertex 572.717224 -71.884644 1199.251831
vertex 585.586914 426.292725 1308.267700
vertex 572.717224 -71.884644 1192.952637
endloop
endfacet
facet normal -0.999667 0.025825 -0.000000
outer loop
vertex 572.717224 -71.884644 1192.952637
vertex 585.586914 426.292725 1308.267700
vertex 577.274780 104.535309 1199.827026
endloop
endfacet
facet normal -0.999666 0.025825 -0.000001
outer loop
vertex 577.274780 104.535309 1199.827026
vertex 585.586914 426.292725 1308.267700
vertex 581.148560 254.485291 1199.827026
endloop
endfacet
facet normal -0.999667 0.025825 0.000000
outer loop
vertex 581.148560 254.485291 1199.827026
vertex 585.586914 426.292725 1308.267700
vertex 581.148560 254.485291 137.228577
endloop
endfacet
facet normal -0.999666 0.025825 0.000000
outer loop
vertex 564.144104 -403.745300 0.000000
vertex 569.417114 -199.630890 52.331970
vertex 585.586914 426.292725 0.000000
endloop
endfacet
facet normal -0.999666 0.025825 0.000000
outer loop
vertex 569.417114 -199.630890 52.331970
vertex 564.144104 -403.745300 0.000000
vertex 568.860596 -221.174561 136.879211
endloop
endfacet
facet normal -0.999667 0.025825 0.000000
outer loop
vertex 568.860596 -221.174561 136.879211
vertex 564.144104 -403.745300 0.000000
vertex 568.860596 -221.174561 1119.556396
endloop
endfacet
facet normal 0.000000 1.000000 0.000000
outer loop
vertex 568.860596 -221.174561 136.879211
vertex 568.860596 -221.174561 1119.556396
vertex 568.860596 -221.174561 1065.236572
endloop
endfacet
facet normal -0.999667 0.025823 0.000000
outer loop
vertex 569.417114 -199.630890 52.331970
vertex 568.860596 -221.174561 136.879211
vertex 569.417114 -199.630890 126.741455
endloop
endfacet
facet normal -0.999667 0.025825 0.000002
outer loop
vertex 585.586914 426.292725 0.000000
vertex 569.417114 -199.630890 52.331970
vertex 571.338745 -125.246246 52.331970
endloop
endfacet
facet normal -0.999666 0.025825 0.000002
outer loop
vertex 585.586914 426.292725 0.000000
vertex 571.338745 -125.246246 52.331970
vertex 578.123413 137.383301 48.558655
endloop
endfacet
facet normal -0.999667 0.025825 -0.000001
outer loop
vertex 578.123413 137.383301 48.558655
vertex 571.338745 -125.246246 52.331970
vertex 572.713928 -72.011711 136.879211
endloop
endfacet
facet normal -0.999667 0.025825 -0.000001
outer loop
vertex 578.123413 137.383301 48.558655
vertex 572.713928 -72.011711 136.879211
vertex 577.274780 104.535309 137.228577
endloop
endfacet
facet normal -0.999666 0.025825 0.000000
outer loop
vertex 577.274780 104.535309 137.228577
vertex 572.713928 -72.011711 136.879211
vertex 572.717224 -71.884644 1192.952637
endloop
endfacet
facet normal -0.999666 0.025824 0.000000
outer loop
vertex 577.274780 104.535309 137.228577
vertex 572.717224 -71.884644 1192.952637
vertex 577.274780 104.535309 1199.827026
endloop
endfacet
facet normal -0.999666 0.025826 0.000000
outer loop
vertex 578.123413 137.383301 48.558655
vertex 577.274780 104.535309 137.228577
vertex 578.123413 137.383301 126.905151
endloop
endfacet
facet normal -0.999666 0.025825 -0.000002
outer loop
vertex 585.586914 426.292725 0.000000
vertex 578.123413 137.383301 48.558655
vertex 580.146667 215.703644 48.558655
endloop
endfacet
facet normal -0.999666 0.025825 0.000000
outer loop
vertex 585.586914 426.292725 0.000000
vertex 580.146667 215.703644 48.558655
vertex 581.148560 254.485291 137.228577
endloop
endfacet
facet normal -0.999666 0.025824 0.000000
outer loop
vertex 585.586914 426.292725 0.000000
vertex 581.148560 254.485291 137.228577
vertex 585.586914 426.292725 1308.267700
endloop
endfacet
facet normal -0.999666 0.025825 0.000000
outer loop
vertex 572.591370 -76.756760 1065.225586
vertex 569.012512 -215.293213 1065.225586
vertex 572.591370 -76.756760 1119.556396
endloop
endfacet
facet normal 0.000000 0.000000 -1.000000
outer loop
vertex 572.717224 -71.884644 1192.952637
vertex 526.470215 -215.620163 1192.952637
vertex 530.211731 -70.786583 1192.952637
endloop
endfacet
facet normal 0.000000 0.000000 -1.000000
outer loop
vertex 526.470215 -215.620163 1192.952637
vertex 572.717224 -71.884644 1192.952637
vertex 568.975647 -216.718201 1192.952637
endloop
endfacet
facet normal -0.025825 -0.999667 0.000000
outer loop
vertex 568.975647 -216.718201 1199.251831
vertex 526.470215 -215.620163 1192.952637
vertex 568.975647 -216.718201 1192.952637
endloop
endfacet
facet normal -0.025823 -0.999666 0.000000
outer loop
vertex 526.470215 -215.620163 1192.952637
vertex 568.975647 -216.718201 1199.251831
vertex 526.470215 -215.620163 1199.251831
endloop
endfacet
facet normal 0.000003 0.000000 1.000000
outer loop
vertex 526.470215 -215.620163 1199.251831
vertex 572.717224 -71.884644 1199.251831
vertex 530.211731 -70.786583 1199.251831
endloop
endfacet
facet normal -0.000001 0.000000 1.000000
outer loop
vertex 572.717224 -71.884644 1199.251831
vertex 526.470215 -215.620163 1199.251831
vertex 568.975647 -216.718201 1199.251831
endloop
endfacet
facet normal 0.025825 0.999667 0.000000
outer loop
vertex 530.211731 -70.786583 1199.251831
vertex 572.717224 -71.884644 1192.952637
vertex 530.211731 -70.786583 1192.952637
endloop
endfacet
facet normal 0.025824 0.999666 0.000000
outer loop
vertex 572.717224 -71.884644 1192.952637
vertex 530.211731 -70.786583 1199.251831
vertex 572.717224 -71.884644 1199.251831
endloop
endfacet
facet normal -0.025825 -0.999667 0.000000
outer loop
vertex 1231.005737 -112.519554 1426.771606
vertex 1060.983643 -108.127289 1292.519653
vertex 1231.005737 -112.519554 1292.519653
endloop
endfacet
facet normal -0.025825 -0.999666 0.000000
outer loop
vertex 1060.983643 -108.127289 1292.519653
vertex 1231.005737 -112.519554 1426.771606
vertex 1060.983643 -108.127289 1426.771606
endloop
endfacet
facet normal 0.999667 -0.025824 0.000000
outer loop
vertex 1236.058838 83.084473 1292.519653
vertex 1231.005737 -112.519554 1426.771606
vertex 1231.005737 -112.519554 1292.519653
endloop
endfacet
facet normal 0.999667 -0.025825 0.000000
outer loop
vertex 1231.005737 -112.519554 1426.771606
vertex 1236.058838 83.084473 1292.519653
vertex 1236.058838 83.084473 1426.771606
endloop
endfacet
facet normal 0.025825 0.999666 0.000000
outer loop
vertex 1066.036865 87.476738 1426.771606
vertex 1236.058838 83.084473 1292.519653
vertex 1066.036865 87.476738 1292.519653
endloop
endfacet
facet normal 0.025825 0.999666 0.000000
outer loop
vertex 1236.058838 83.084473 1292.519653
vertex 1066.036865 87.476738 1426.771606
vertex 1236.058838 83.084473 1426.771606
endloop
endfacet
facet normal -0.999666 0.025824 0.000000
outer loop
vertex 530.771606 255.786713 1199.827026
vertex 526.897888 105.836723 137.228577
vertex 526.897888 105.836723 1199.827026
endloop
endfacet
facet normal -0.999666 0.025825 0.000000
outer loop
vertex 526.897888 105.836723 137.228577
vertex 530.771606 255.786713 1199.827026
vertex 530.771606 255.786713 137.228577
endloop
endfacet
facet normal 0.000001 0.000000 1.000000
outer loop
vertex 526.897888 105.836723 1199.827026
vertex 581.148560 254.485291 1199.827026
vertex 530.771606 255.786713 1199.827026
endloop
endfacet
facet normal -0.000003 0.000000 1.000000
outer loop
vertex 581.148560 254.485291 1199.827026
vertex 526.897888 105.836723 1199.827026
vertex 577.274780 104.535309 1199.827026
endloop
endfacet
facet normal 0.025825 0.999667 0.000000
outer loop
vertex 530.771606 255.786713 1199.827026
vertex 581.148560 254.485291 137.228577
vertex 530.771606 255.786713 137.228577
endloop
endfacet
facet normal 0.025825 0.999667 0.000000
outer loop
vertex 581.148560 254.485291 137.228577
vertex 530.771606 255.786713 1199.827026
vertex 581.148560 254.485291 1199.827026
endloop
endfacet
facet normal 0.000000 0.000000 -1.000000
outer loop
vertex 581.148560 254.485291 137.228577
vertex 526.897888 105.836723 137.228577
vertex 530.771606 255.786713 137.228577
endloop
endfacet
facet normal 0.000000 0.000000 -1.000000
outer loop
vertex 526.897888 105.836723 137.228577
vertex 581.148560 254.485291 137.228577
vertex 577.274780 104.535309 137.228577
endloop
endfacet
facet normal -0.025825 -0.999667 0.000000
outer loop
vertex 577.274780 104.535309 1199.827026
vertex 526.897888 105.836723 137.228577
vertex 577.274780 104.535309 137.228577
endloop
endfacet
facet normal -0.025825 -0.999666 0.000000
outer loop
vertex 526.897888 105.836723 137.228577
vertex 577.274780 104.535309 1199.827026
vertex 526.897888 105.836723 1199.827026
endloop
endfacet
facet normal 0.025825 0.999667 0.000000
outer loop
vertex 530.208435 -70.913651 1065.236572
vertex 572.713928 -72.011711 136.879211
vertex 530.208435 -70.913651 136.879211
endloop
endfacet
facet normal 0.025825 0.999667 0.000000
outer loop
vertex 572.713928 -72.011711 136.879211
vertex 530.208435 -70.913651 1065.236572
vertex 572.713928 -72.011711 1065.236572
endloop
endfacet
facet normal 0.029267 0.000000 0.999572
outer loop
vertex 572.713928 -72.011711 1065.236572
vertex 530.208435 -70.913651 1065.236572
vertex 530.602051 -70.923828 1065.236572
endloop
endfacet
facet normal -0.000001 0.000000 -1.000000
outer loop
vertex 572.713928 -72.011711 136.879211
vertex 526.355042 -220.076477 136.879211
vertex 530.208435 -70.913651 136.879211
endloop
endfacet
facet normal 0.000000 0.000000 -1.000000
outer loop
vertex 526.355042 -220.076477 136.879211
vertex 572.713928 -72.011711 136.879211
vertex 568.860596 -221.174561 136.879211
endloop
endfacet
facet normal -0.025825 -0.999667 0.000000
outer loop
vertex 568.860596 -221.174561 1119.556396
vertex 526.748596 -220.086639 1065.236572
vertex 568.860596 -221.174561 1065.236572
endloop
endfacet
facet normal -0.025825 -0.999666 0.000000
outer loop
vertex 526.748596 -220.086639 1065.236572
vertex 568.860596 -221.174561 1119.556396
vertex 526.748596 -220.086639 1119.556396
endloop
endfacet
facet normal 0.000005 0.000000 1.000000
outer loop
vertex 534.771912 -214.408676 1065.225586
vertex 572.591370 -76.756760 1065.225586
vertex 538.350830 -75.872215 1065.225586
endloop
endfacet
facet normal -0.000001 0.000000 1.000000
outer loop
vertex 572.591370 -76.756760 1065.225586
vertex 534.771912 -214.408676 1065.225586
vertex 569.012512 -215.293213 1065.225586
endloop
endfacet
facet normal 0.000002 0.000000 1.000000
outer loop
vertex 526.748596 -220.086639 1119.556396
vertex 538.350830 -75.872215 1119.556396
vertex 530.602051 -70.923828 1119.556396
endloop
endfacet
facet normal -0.000035 0.000000 1.000000
outer loop
vertex 538.350830 -75.872215 1119.556396
vertex 526.748596 -220.086639 1119.556396
vertex 534.771912 -214.408676 1119.556396
endloop
endfacet
facet normal 0.000002 0.000000 1.000000
outer loop
vertex 534.771912 -214.408676 1119.556396
vertex 526.748596 -220.086639 1119.556396
vertex 568.860596 -221.174561 1119.556396
endloop
endfacet
facet normal 0.000000 0.000000 1.000000
outer loop
vertex 534.771912 -214.408676 1119.556396
vertex 568.860596 -221.174561 1119.556396
vertex 569.012512 -215.293213 1119.556396
endloop
endfacet
facet normal -0.000001 0.000000 1.000000
outer loop
vertex 538.350830 -75.872215 1119.556396
vertex 572.713928 -72.011711 1119.556396
vertex 530.602051 -70.923828 1119.556396
endloop
endfacet
facet normal -0.000001 0.000000 1.000000
outer loop
vertex 572.713928 -72.011711 1119.556396
vertex 538.350830 -75.872215 1119.556396
vertex 572.591370 -76.756760 1119.556396
endloop
endfacet
facet normal 0.025824 0.999667 0.000000
outer loop
vertex 534.771912 -214.408676 1119.556396
vertex 569.012512 -215.293213 1065.225586
vertex 534.771912 -214.408676 1065.225586
endloop
endfacet
facet normal 0.025824 0.999667 0.000000
outer loop
vertex 569.012512 -215.293213 1065.225586
vertex 534.771912 -214.408676 1119.556396
vertex 569.012512 -215.293213 1119.556396
endloop
endfacet
facet normal 0.999666 -0.025826 0.000000
outer loop
vertex 538.350830 -75.872215 1065.225586
vertex 534.771912 -214.408676 1119.556396
vertex 534.771912 -214.408676 1065.225586
endloop
endfacet
facet normal 0.999666 -0.025825 0.000000
outer loop
vertex 534.771912 -214.408676 1119.556396
vertex 538.350830 -75.872215 1065.225586
vertex 538.350830 -75.872215 1119.556396
endloop
endfacet
facet normal -0.025825 -0.999667 0.000000
outer loop
vertex 572.591370 -76.756760 1119.556396
vertex 538.350830 -75.872215 1065.225586
vertex 572.591370 -76.756760 1065.225586
endloop
endfacet
facet normal -0.025825 -0.999666 0.000000
outer loop
vertex 538.350830 -75.872215 1065.225586
vertex 572.591370 -76.756760 1119.556396
vertex 538.350830 -75.872215 1119.556396
endloop
endfacet
facet normal -0.999666 0.025825 0.000000
outer loop
vertex 530.208435 -70.913651 1065.236572
vertex 526.355042 -220.076477 136.879211
vertex 526.355042 -220.076477 1065.236572
endloop
endfacet
facet normal -0.999666 0.025825 0.000000
outer loop
vertex 526.355042 -220.076477 136.879211
vertex 530.208435 -70.913651 1065.236572
vertex 530.208435 -70.913651 136.879211
endloop
endfacet
facet normal -0.025825 -0.999666 0.000000
outer loop
vertex 568.860596 -221.174561 1065.236572
vertex 526.355042 -220.076477 136.879211
vertex 568.860596 -221.174561 136.879211
endloop
endfacet
facet normal -0.025825 -0.999666 0.000000
outer loop
vertex 526.355042 -220.076477 136.879211
vertex 568.860596 -221.174561 1065.236572
vertex 526.355042 -220.076477 1065.236572
endloop
endfacet
facet normal 0.000000 0.000000 0.000000
outer loop
vertex 526.355042 -220.076477 1065.236572
vertex 568.860596 -221.174561 1065.236572
vertex 526.748596 -220.086639 1065.236572
endloop
endfacet
facet normal 0.025825 0.999666 0.000000
outer loop
vertex 530.602051 -70.923828 1119.556396
vertex 572.713928 -72.011711 1065.236572
vertex 530.602051 -70.923828 1065.236572
endloop
endfacet
facet normal 0.025825 0.999666 0.000000
outer loop
vertex 572.713928 -72.011711 1065.236572
vertex 530.602051 -70.923828 1119.556396
vertex 572.713928 -72.011711 1119.556396
endloop
endfacet
facet normal -0.999666 0.025825 0.000000
outer loop
vertex 530.211731 -70.786583 1199.251831
vertex 526.470215 -215.620163 1192.952637
vertex 526.470215 -215.620163 1199.251831
endloop
endfacet
facet normal -0.999667 0.025825 0.000000
outer loop
vertex 526.470215 -215.620163 1192.952637
vertex 530.211731 -70.786583 1199.251831
vertex 530.211731 -70.786583 1192.952637
endloop
endfacet
facet normal -0.999667 0.025823 0.000000
outer loop
vertex 580.146667 215.703644 126.905151
vertex 578.123413 137.383301 48.558655
vertex 578.123413 137.383301 126.905151
endloop
endfacet
facet normal -0.999667 0.025825 0.000000
outer loop
vertex 578.123413 137.383301 48.558655
vertex 580.146667 215.703644 126.905151
vertex 580.146667 215.703644 48.558655
endloop
endfacet
endsolid Exported from Blender-2.90.0
